<svg xmlns="http://www.w3.org/2000/svg" style="display: none;">
  <symbol id="icon-clock" viewBox="0 0 24 24" fill="none">
    <circle cx="12" cy="12" r="8" stroke="currentColor" stroke-width="2"/>
    <path
      d="M12 8v4l3 2"
      stroke="currentColor"
      stroke-width="2"
      stroke-linecap="round"
    />
  </symbol>
  <symbol id="icon-sliders" viewBox="0 0 24 24" fill="none">
    <path
      d="M3 6h10M3 12h18M3 18h12"
      stroke="currentColor"
      stroke-width="1.8"
      stroke-linecap="round"
    />
    <rect x="14" y="4.5" width="7" height="3" rx="1.5" fill="currentColor" />
    <rect x="7" y="16.5" width="7" height="3" rx="1.5" fill="currentColor" />
  </symbol>
  <symbol id="icon-grid" viewBox="0 0 24 24" fill="none">
    <path
      d="M3 12h18M12 3v18"
      stroke="currentColor"
      stroke-width="1.5"
      stroke-linecap="round"
    />
  </symbol>
  <symbol id="icon-calendar" viewBox="0 0 24 24" fill="none">
    <path
      d="M7 3v3M17 3v3M4 9h16M4 7a2 2 0 0 1 2-2h12a2 2 0 0 1 2 2v12a2 2 0 0 1-2 2H6a2 2 0 0 1-2-2V9Z"
      stroke="currentColor"
      stroke-width="1.5"
      stroke-linecap="round"
    />
  </symbol>
  <symbol id="icon-plus" viewBox="0 0 24 24" fill="none">
    <path
      d="M12 5v14M5 12h14"
      stroke="currentColor"
      stroke-width="2"
      stroke-linecap="round"
    />
  </symbol>
  <symbol id="icon-trash" viewBox="0 0 24 24" fill="none">
    <path
      d="M4 7h16M9 7V5h6v2m-9 0 1 12a2 2 0 0 0 2 2h6a2 2 0 0 0 2-2l1-12"
      stroke="currentColor"
      stroke-width="1.8"
      stroke-linecap="round"
      stroke-linejoin="round"
    />
  </symbol>
  <symbol id="icon-bell" viewBox="0 0 24 24" fill="none">
    <path
      d="M18 8A6 6 0 0 0 6 8c0 7-3 9-3 9h18s-3-2-3-9M13.73 21a2 2 0 0 1-3.46 0"
      stroke="currentColor"
      stroke-width="1.8"
      stroke-linecap="round"
      stroke-linejoin="round"
    />
  </symbol>
  <symbol id="icon-clock-simple" viewBox="0 0 24 24" fill="none">
    <circle cx="12" cy="12" r="9" stroke="currentColor" stroke-width="2"/>
    <path
      d="M12 7v5l3 3"
      stroke="currentColor"
      stroke-width="2"
      stroke-linecap="round"
      stroke-linejoin="round"
    />
  </symbol>
</svg>
